<svg xmlns="http://www.w3.org/2000/svg" viewBox="0 0 512 512">
      <defs>
        <linearGradient id="bg" x1="74" y1="58" x2="438" y2="454" gradientUnits="userSpaceOnUse">
          <stop stop-color="#2F3641"/>
          <stop offset="1" stop-color="#111827"/>
        </linearGradient>
        <linearGradient id="mark" x1="136" y1="112" x2="386" y2="388" gradientUnits="userSpaceOnUse">
          <stop stop-color="#F8FAFC"/>
          <stop offset="1" stop-color="#D1D5DB"/>
        </linearGradient>
      </defs>
      <rect x="42" y="42" width="428" height="428" rx="92" fill="url(#bg)"/>
      <rect x="84" y="92" width="344" height="328" rx="48" fill="#0B1120" opacity=".56"/>
      <rect x="84" y="92" width="344" height="54" rx="27" fill="#334155" opacity=".78"/>
      <circle cx="122" cy="119" r="7" fill="#94A3B8"/>
      <circle cx="146" cy="119" r="7" fill="#64748B"/>
      <path d="M366 205l34 51-34 51" fill="none" stroke="#67E8F9" stroke-width="16" stroke-linecap="round" stroke-linejoin="round"/>
      
    <g transform="translate(128 116) scale(2.15) translate(-452 -368)">
      <path d="M474.78218,393.8 L474.78218,368 L566.666667,368 L566.666667,393.8 L474.78218,393.8 Z M521.101,419.6 L521.102306,445.4 L452,445.4 L452,393.8 L566.666667,393.8 L566.666667,419.6 L521.101,419.6 Z M474.78218,497 L474.775667,471.2 L452,471.2 L452,445.4 L566.666667,445.4 L566.666667,497 L474.78218,497 Z" fill="url(#mark)" fill-rule="nonzero"/>
    </g>
  
    </svg>